TITLE ""
FILE "Step2_Track12.mp3" MP3
  TRACK 01 AUDIO
    TITLE "Step2_Track12_01"
    INDEX 01 00:00:00
  TRACK 02 AUDIO
    TITLE "Step2_Track12_02"
    INDEX 01 00:00:24
  TRACK 03 AUDIO
    TITLE "Step2_Track12_03"
    INDEX 01 00:01:47
  TRACK 04 AUDIO
    TITLE "Step2_Track12_04"
    INDEX 01 00:02:33
  TRACK 05 AUDIO
    TITLE "Step2_Track12_05"
    INDEX 01 00:03:32
  TRACK 06 AUDIO
    TITLE "Step2_Track12_06"
    INDEX 01 00:03:54
  TRACK 07 AUDIO
    TITLE "Step2_Track12_07"
    INDEX 01 00:05:27
  TRACK 08 AUDIO
    TITLE "Step2_Track12_08"
    INDEX 01 00:05:47
  TRACK 09 AUDIO
    TITLE "Step2_Track12_09"
    INDEX 01 00:06:44
  TRACK 10 AUDIO
    TITLE "Step2_Track12_10"
    INDEX 01 00:06:56
  TRACK 11 AUDIO
    TITLE "Step2_Track12_11"
    INDEX 01 00:09:13
  TRACK 12 AUDIO
    TITLE "Step2_Track12_12"
    INDEX 01 00:09:46
  TRACK 13 AUDIO
    TITLE "Step2_Track12_13"
    INDEX 01 00:10:40
  TRACK 14 AUDIO
    TITLE "Step2_Track12_14"
    INDEX 01 00:10:69
  TRACK 15 AUDIO
    TITLE "Step2_Track12_15"
    INDEX 01 00:13:38
  TRACK 16 AUDIO
    TITLE "Step2_Track12_16"
    INDEX 01 00:13:66
  TRACK 17 AUDIO
    TITLE "Step2_Track12_17"
    INDEX 01 00:14:59
  TRACK 18 AUDIO
    TITLE "Step2_Track12_18"
    INDEX 01 00:15:04
  TRACK 19 AUDIO
    TITLE "Step2_Track12_19"
    INDEX 01 00:16:70
  TRACK 20 AUDIO
    TITLE "Step2_Track12_20"
    INDEX 01 00:17:30
  TRACK 21 AUDIO
    TITLE "Step2_Track12_21"
    INDEX 01 00:18:22
  TRACK 22 AUDIO
    TITLE "Step2_Track12_22"
    INDEX 01 00:18:38
  TRACK 23 AUDIO
    TITLE "Step2_Track12_23"
    INDEX 01 00:19:70
  TRACK 24 AUDIO
    TITLE "Step2_Track12_24"
    INDEX 01 00:20:29
  TRACK 25 AUDIO
    TITLE "Step2_Track12_25"
    INDEX 01 00:21:32
  TRACK 26 AUDIO
    TITLE "Step2_Track12_26"
    INDEX 01 00:21:58
  TRACK 27 AUDIO
    TITLE "Step2_Track12_27"
    INDEX 01 00:23:60
  TRACK 28 AUDIO
    TITLE "Step2_Track12_28"
    INDEX 01 00:24:07
  TRACK 29 AUDIO
    TITLE "Step2_Track12_29"
    INDEX 01 00:25:12
  TRACK 30 AUDIO
    TITLE "Step2_Track12_30"
    INDEX 01 00:25:47
  TRACK 31 AUDIO
    TITLE "Step2_Track12_31"
    INDEX 01 00:30:09
  TRACK 32 AUDIO
    TITLE "Step2_Track12_32"
    INDEX 01 00:30:56
  TRACK 33 AUDIO
    TITLE "Step2_Track12_33"
    INDEX 01 00:31:46
  TRACK 34 AUDIO
    TITLE "Step2_Track12_34"
    INDEX 01 00:32:06
  TRACK 35 AUDIO
    TITLE "Step2_Track12_35"
    INDEX 01 00:36:06
  TRACK 36 AUDIO
    TITLE "Step2_Track12_36"
    INDEX 01 00:36:45
  TRACK 37 AUDIO
    TITLE "Step2_Track12_37"
    INDEX 01 00:37:47
  TRACK 38 AUDIO
    TITLE "Step2_Track12_38"
    INDEX 01 00:37:68
  TRACK 39 AUDIO
    TITLE "Step2_Track12_39"
    INDEX 01 00:40:59
  TRACK 40 AUDIO
    TITLE "Step2_Track12_40"
    INDEX 01 00:41:33
  TRACK 41 AUDIO
    TITLE "Step2_Track12_41"
    INDEX 01 00:42:28
  TRACK 42 AUDIO
    TITLE "Step2_Track12_42"
    INDEX 01 00:42:54
  TRACK 43 AUDIO
    TITLE "Step2_Track12_43"
    INDEX 01 00:45:70
